<svg width="24" height="24" viewBox="0 0 24 24" fill="none" xmlns="http://www.w3.org/2000/svg">
<path d="M15 5.29299L4.64678 15.6462L15 5.29299ZM15 5.29299L18.7069 8.99988L8.35345 19.3533L8.707 19.7069L8.35345 19.3533C8.29225 19.4145 8.21539 19.4591 8.13097 19.4821L3.63414 20.3657L4.51766 15.8684C4.54069 15.7845 4.58508 15.7081 4.64655 15.6464L15 5.29299ZM19.414 8.29277L15.7071 4.58588L16.9395 3.35349C16.9395 3.35347 16.9395 3.35345 16.9396 3.35343C17.2208 3.07226 17.6023 2.91431 18 2.91431C18.3977 2.91431 18.7792 3.07226 19.0604 3.35343C19.0605 3.35345 19.0605 3.35347 19.0605 3.35349L20.6464 4.93938C20.9276 5.22067 21.0856 5.60213 21.0856 5.99988C21.0856 6.39763 20.9276 6.77909 20.6464 7.06038L19.414 8.29277Z" fill="white" stroke="#131313"/>
</svg>
